HIERARCHY
ROOT root
{
	OFFSET	0	13.1	24.9
	CHANNELS 6  Xposition Yposition Zposition Xrotation Yrotation Zrotation
	JOINT spine_1
	{
		OFFSET	0	9.99999	0
		CHANNELS 3  Xrotation Yrotation Zrotation
		JOINT spine_2
		{
			OFFSET	0	112	-10
			CHANNELS 3  Xrotation Yrotation Zrotation
			JOINT spine_3
			{
				OFFSET	0	206.5	19.3
				CHANNELS 3  Xrotation Yrotation Zrotation
				JOINT spine_4
				{
					OFFSET	0	110.4	14.6
					CHANNELS 3  Xrotation Yrotation Zrotation
					JOINT neck_1
					{
						OFFSET	0	71.8	-50.3
						CHANNELS 3  Xrotation Yrotation Zrotation
						JOINT neck_2
						{
							OFFSET	0	86.2	-25.8
							CHANNELS 3  Xrotation Yrotation Zrotation
							JOINT head_ee
							{
								OFFSET	0	179.8	-8.7
								CHANNELS 3  Xrotation Yrotation Zrotation
								End Site
								{
									OFFSET	1	0	0
								}
							}
						}
					}
					JOINT left_clavicle
					{
						OFFSET	-43.2	22.4	-70.8
						CHANNELS 3  Xrotation Yrotation Zrotation
						JOINT left_shoulder
						{
							OFFSET	-93.9	-5.79999	48.7
							CHANNELS 3  Xrotation Yrotation Zrotation
							JOINT left_elbow
							{
								OFFSET	-291.4	-30.8	15.2
								CHANNELS 3  Xrotation Yrotation Zrotation
								JOINT left_lowarm_twist
								{
									OFFSET	-110.7	-3.89999	13.6
									CHANNELS 3  Xrotation Yrotation Zrotation
									JOINT left_hand
									{
										OFFSET	-110.7	-3.89999	13.6
										CHANNELS 3  Xrotation Yrotation Zrotation
										JOINT left_ee
										{
											OFFSET	-80.8	-5.10001	12.1
											CHANNELS 3  Xrotation Yrotation Zrotation
											End Site
											{
												OFFSET	1	0	0
											}
										}
									}
								}
							}
						}
					}
					JOINT right_clavicle
					{
						OFFSET	43.2	22.4	-70.8
						CHANNELS 3  Xrotation Yrotation Zrotation
						JOINT right_shoulder
						{
							OFFSET	93.9	-5.79999	48.7
							CHANNELS 3  Xrotation Yrotation Zrotation
							JOINT right_elbow
							{
								OFFSET	291.4	-30.8	15.2
								CHANNELS 3  Xrotation Yrotation Zrotation
								JOINT right_lowarm_twist
								{
									OFFSET	110.7	-3.89999	13.6
									CHANNELS 3  Xrotation Yrotation Zrotation
									JOINT right_hand
									{
										OFFSET	110.7	-3.89999	13.6
										CHANNELS 3  Xrotation Yrotation Zrotation
										JOINT right_ee
										{
											OFFSET	80.8	-5.10001	12.1
											CHANNELS 3  Xrotation Yrotation Zrotation
											End Site
											{
												OFFSET	1	0	0
											}
										}
									}
								}
							}
						}
					}
				}
			}
		}
	}
	JOINT left_hip
	{
		OFFSET	-82.8	-127.5	0.300001
		CHANNELS 3  Xrotation Yrotation Zrotation
		JOINT left_knee
		{
			OFFSET	-28.2	-396.7	2.2
			CHANNELS 3  Xrotation Yrotation Zrotation
			JOINT left_ankle
			{
				OFFSET	-11.7	-411.3	35.4
				CHANNELS 3  Xrotation Yrotation Zrotation
				JOINT left_toes
				{
					OFFSET	0	-60	-88.6
					CHANNELS 3  Xrotation Yrotation Zrotation
					JOINT left_foot_ee
					{
						OFFSET	-22.5	-16.5	-42.2
						CHANNELS 3  Xrotation Yrotation Zrotation
						End Site
						{
							OFFSET	1	0	0
						}
					}
				}
			}
		}
	}
	JOINT right_hip
	{
		OFFSET	82.8	-127.5	0.300001
		CHANNELS 3  Xrotation Yrotation Zrotation
		JOINT right_knee
		{
			OFFSET	28.2	-396.7	2.2
			CHANNELS 3  Xrotation Yrotation Zrotation
			JOINT right_ankle
			{
				OFFSET	11.7	-411.3	35.4
				CHANNELS 3  Xrotation Yrotation Zrotation
				JOINT right_toes
				{
					OFFSET	0	-60	-88.6
					CHANNELS 3  Xrotation Yrotation Zrotation
					JOINT right_foot_ee
					{
						OFFSET	22.5	-16.5	-42.2
						CHANNELS 3  Xrotation Yrotation Zrotation
						End Site
						{
							OFFSET	1	0	0
						}
					}
				}
			}
		}
	}
}
MOTION
Frames: 15
Frame Time: 0.02
2895.64602658 698.466 -1928.92974037 -22.9449981642 52.3509181458 24.7080386209 7.80888 -0.660726 -1.63476 7.8102 -0.555379 -1.67347 7.82404 -0.428292 -1.71041 7.82062 -0.693009 -1.62134 -16.358 -7.20666 2.2027 -16.5819 -15.0762 -0.523663 -0.0 0.0 -0.0 12.3437 -18.856 24.801 -20.7632 -14.3596 59.6615 1.38333 -34.4195 0.42849 -34.0755 -2.34425 3.60351 3.94534 -13.4754 21.2557 -0.0 0.0 -0.0 3.11939 -15.6613 -6.79319 -44.119 36.0821 -55.7946 0.558358 15.4613 -0.0757976 -26.3341 1.62842 -2.91685 -5.56659 19.3366 51.1047 0.0 0.0 0.0 27.5832 -4.63222 -3.54778 -26.0811 0.174112 3.96417 28.7535 0.640138 -3.77144 -6.49917 0.0 0.0 -0.0 0.0 -0.0 35.712 -0.888395 -3.77179 -56.1892 1.80285 -8.0924 17.7174 5.136 2.50253 16.9241 -0.0 -0.0 0.0 0.0 0.0 
2886.7549002 698.466 -1918.95032833 -24.0130656411 54.1856993598 26.0405235812 7.80888 -0.660726 -1.63476 7.8102 -0.555379 -1.67347 7.82404 -0.428292 -1.71041 7.82062 -0.693009 -1.62134 -16.358 -7.20666 2.2027 -16.5819 -15.0762 -0.523663 -0.0 0.0 -0.0 12.3437 -18.856 24.801 -20.7632 -14.3596 59.6615 1.38333 -34.4195 0.42849 -34.0755 -2.34425 3.60351 3.94534 -13.4754 21.2557 -0.0 0.0 -0.0 3.11939 -15.6613 -6.79319 -44.119 36.0821 -55.7946 0.558358 15.4613 -0.0757976 -26.3341 1.62842 -2.91685 -5.56659 19.3366 51.1047 0.0 0.0 0.0 27.5832 -4.63222 -3.54778 -26.0811 0.174112 3.96417 28.7535 0.640138 -3.77144 -6.49917 0.0 0.0 -0.0 0.0 -0.0 35.712 -0.888395 -3.77179 -56.1892 1.80285 -8.0924 17.7174 5.136 2.50253 16.9241 -0.0 -0.0 0.0 0.0 0.0 
2856.64268147 700.63 -1908.81212835 -28.0004584051 57.8942481643 31.4704206945 7.98301 -0.763861 -1.89361 7.98477 -0.641841 -1.93836 8.00319 -0.500919 -1.97945 7.99863 -0.807196 -1.87556 -16.6042 -8.00622 2.044 -16.8871 -16.517 -1.00787 -0.0 0.0 -0.0 12.8252 -22.3255 25.6524 -20.405 -14.5936 59.8138 1.4268 -35.2503 0.453317 -30.9225 -2.0415 3.33548 3.44245 -11.4861 18.6368 -0.0 0.0 -0.0 3.17568 -17.6791 -6.94502 -46.9188 37.5345 -54.453 0.544686 15.1002 -0.0721946 -26.5331 1.64563 -2.93567 -5.48028 21.65 51.1111 0.0 0.0 0.0 24.8393 -2.54719 -4.05477 -20.0139 0.295474 3.04148 25.5631 -0.527234 -3.42201 -6.97307 0.0 0.0 -0.0 0.0 -0.0 39.9874 -0.98798 -3.13537 -56.3935 1.8234 -8.11627 14.6599 6.98797 2.11564 15.1151 -0.0 -0.0 0.0 0.0 0.0 
2832.53547351 699.773 -1904.8005278 -31.392216084 60.1258496613 34.4576037338 8.22961 -0.649331 -1.96215 8.2316 -0.523184 -1.99947 8.2461 -0.386725 -2.03027 8.24103 -0.702455 -1.94377 -15.9919 -7.51795 2.96546 -16.2286 -16.1147 0.12821 -0.0 0.0 -0.0 13.0981 -24.0169 26.1234 -19.4986 -14.5122 59.135 1.45424 -35.7663 0.469257 -29.4557 -1.9058 3.20524 2.82388 -9.06906 15.3915 -0.0 0.0 -0.0 2.98384 -21.8152 -6.77102 -52.5652 40.3888 -49.3689 0.637728 17.532 -0.0983393 -25.9735 1.59741 -2.88258 -5.16821 21.7857 48.1437 0.0 0.0 0.0 21.4064 -1.87909 -4.01746 -15.9247 0.321905 2.41476 28.0402 1.24762 -3.68949 -9.25928 0.0 0.0 -0.0 0.0 -0.0 44.739 3.28273 -5.42182 -55.8535 1.76927 -8.05302 12.2032 3.77684 1.75623 12.1338 -0.0 -0.0 0.0 0.0 0.0 
2762.69583755 695.564 -1942.90600119 -32.7256371226 60.4062382669 37.4575534568 8.46097 -0.594267 -2.25137 8.46367 -0.449841 -2.28459 8.47644 -0.303523 -2.30858 8.46962 -0.664221 -2.23174 -16.0604 -5.41099 2.42704 -16.1823 -11.7681 0.377709 -0.0 0.0 -0.0 12.6861 -24.6044 25.1081 -16.5712 -10.7727 54.8327 1.7818 -41.4295 0.673856 -24.2381 -1.45121 2.71498 -1.90648 -4.76922 -15.0377 -0.0 0.0 -0.0 3.09591 -24.6038 -6.98446 -58.4534 43.8754 -46.4176 0.594633 16.4132 -0.0857585 -22.4952 1.30959 -2.54233 -3.29952 23.1234 32.9469 0.0 0.0 0.0 14.6438 1.76548 -7.48424 -4.38133 0.155434 0.654273 40.8613 2.86154 -4.93448 -13.8756 0.0 0.0 -0.0 0.0 -0.0 45.0786 11.8081 -11.3385 -29.8399 -0.0501659 -4.52763 11.6513 -20.5123 1.6879 5.34852 -0.0 -0.0 0.0 0.0 0.0 
2765.69843983 695.564 -1947.39933433 -32.1429549575 59.8798864329 36.78570549 8.46097 -0.594267 -2.25137 8.46367 -0.449841 -2.28459 8.47644 -0.303523 -2.30858 8.46962 -0.664221 -2.23174 -16.0604 -5.41099 2.42704 -16.1823 -11.7681 0.377709 -0.0 0.0 -0.0 12.6861 -24.6044 25.1081 -16.5712 -10.7727 54.8327 1.7818 -41.4295 0.673856 -24.2381 -1.45121 2.71498 -1.90648 -4.76922 -15.0377 -0.0 0.0 -0.0 3.09591 -24.6038 -6.98446 -58.4534 43.8754 -46.4176 0.594633 16.4132 -0.0857585 -22.4952 1.30959 -2.54233 -3.29952 23.1234 32.9469 0.0 0.0 0.0 14.6438 1.76548 -7.48424 -4.38133 0.155434 0.654273 40.8613 2.86154 -4.93448 -13.8756 0.0 0.0 -0.0 0.0 -0.0 45.0786 11.8081 -11.3385 -29.8399 -0.0501659 -4.52763 11.6513 -20.5123 1.6879 5.34852 -0.0 -0.0 0.0 0.0 0.0 
2746.96640452 691.068 -1954.26505771 -30.447658624 58.3401096753 35.0747373672 8.29947 -0.597318 -2.26538 8.30221 -0.451995 -2.29877 8.31524 -0.298232 -2.32372 8.30831 -0.661385 -2.24752 -17.4439 -4.99588 0.706188 -17.5572 -9.99062 -1.21368 -0.0 0.0 -0.0 12.8841 -25.0735 25.5147 -15.36 -10.4572 54.4083 1.82965 -42.1837 0.705754 -19.2518 -1.06034 2.21002 -2.26437 -4.69199 -17.5148 -0.0 0.0 -0.0 2.91528 -23.6382 -6.71936 -57.2188 41.746 -47.4061 0.536786 14.891 -0.0701503 -21.2032 1.20803 -2.41162 -2.87297 24.4478 30.2144 0.0 0.0 0.0 12.895 4.50695 -7.52043 -2.46674 0.0936765 0.366944 40.4692 2.69162 -4.90179 -10.4065 0.0 0.0 -0.0 0.0 -0.0 45.5236 12.328 -11.5564 -27.3551 -0.136252 -4.15602 22.482 -29.5298 3.28557 9.6953 -0.0 -0.0 0.0 0.0 0.0 
2732.07224845 684.3 -1963.02933613 -29.0290349842 58.1519037002 33.6660407255 8.2951 -0.594915 -2.29192 8.29791 -0.44791 -2.3251 8.31086 -0.292226 -2.34974 8.30376 -0.65956 -2.27416 -17.9034 -5.74945 0.728664 -18.0603 -11.4529 -1.52816 -0.0 0.0 -0.0 12.9382 -25.3987 25.6035 -14.4414 -10.9535 54.5148 1.86627 -42.749 0.73048 -14.7904 -0.749143 1.7312 -2.1413 -4.71636 -16.6584 -0.0 0.0 -0.0 3.95301 -21.9088 -8.15906 -54.1802 39.2729 -48.8908 0.366512 10.2907 -0.0330027 -17.7726 0.953028 -2.05394 -2.01474 25.1229 24.2817 0.0 0.0 0.0 10.7538 5.41544 -7.22375 -1.67709 0.0654117 0.249053 40.5537 2.5716 -4.90938 -6.2002 0.0 0.0 -0.0 0.0 -0.0 45.6857 11.2209 -10.3238 -19.0153 -0.306055 -2.88864 26.8252 -31.1998 3.89457 10.1373 -0.0 -0.0 0.0 0.0 0.0 
2733.70371556 684.3 -1965.48583244 -28.783762325 57.8744831765 33.3768631241 8.2951 -0.594915 -2.29192 8.29791 -0.44791 -2.3251 8.31086 -0.292226 -2.34974 8.30376 -0.65956 -2.27416 -17.9034 -5.74945 0.728664 -18.0603 -11.4529 -1.52816 -0.0 0.0 -0.0 12.9382 -25.3987 25.6035 -14.4414 -10.9535 54.5148 1.86627 -42.749 0.73048 -14.7904 -0.749143 1.7312 -2.1413 -4.71636 -16.6584 -0.0 0.0 -0.0 3.95301 -21.9088 -8.15906 -54.1802 39.2729 -48.8908 0.366512 10.2907 -0.0330027 -17.7726 0.953028 -2.05394 -2.01474 25.1229 24.2817 0.0 0.0 0.0 10.7538 5.41544 -7.22375 -1.67709 0.0654117 0.249053 40.5537 2.5716 -4.90938 -6.2002 0.0 0.0 -0.0 0.0 -0.0 45.6857 11.2209 -10.3238 -19.0153 -0.306055 -2.88864 26.8252 -31.1998 3.89457 10.1373 -0.0 -0.0 0.0 0.0 0.0 
2725.43333015 686.978 -1970.93415279 -26.7867534141 55.381889067 30.5019508873 8.21861 -0.372376 -2.40338 8.22179 -0.218734 -2.42219 8.2254 -0.0532704 -2.43146 8.21741 -0.436494 -2.39257 -18.3844 -6.38692 1.7104 -18.5987 -13.2054 -0.921605 -0.0 0.0 -0.0 12.8815 -23.9408 25.6287 -13.6352 -10.6972 53.9035 1.93034 -43.7137 0.774366 -10.6343 -0.493685 1.26487 -2.16139 -4.87785 -16.8741 -0.0 0.0 -0.0 4.29679 -21.3098 -8.65976 -53.4067 38.0603 -49.0563 0.275098 7.7604 -0.0186588 -15.1132 0.770395 -1.76663 -1.13673 25.1796 18.2516 0.0 0.0 0.0 9.78631 8.04241 -5.93156 -0.825645 0.0331151 0.122377 40.4518 2.52111 -4.90089 -2.98885 0.0 0.0 -0.0 0.0 -0.0 39.6536 11.2587 -7.78698 1.50397 0.0648477 0.221669 22.1507 -27.9127 3.20548 11.1377 -0.0 -0.0 0.0 0.0 0.0 
2705.94345997 682.646 -1978.86697965 -26.8547429233 55.1815545901 29.2798973648 8.08318 -0.217404 -2.44458 8.0865 -0.0614565 -2.45345 8.0835 0.111991 -2.45167 8.07522 -0.276491 -2.43861 -18.3242 -6.52508 3.14847 -18.5558 -14.2424 0.368389 -0.0 0.0 -0.0 12.8855 -22.9205 25.7379 -13.3407 -10.4421 53.8658 1.97052 -44.3033 0.802283 -7.02784 -0.299979 0.8463 -2.17158 -4.99564 -17.0001 -0.0 0.0 -0.0 4.53312 -20.7481 -9.01338 -52.9964 36.5973 -49.1972 0.263583 7.43928 -0.0171359 -12.38 0.59685 -1.46297 -0.293192 25.195 12.6154 0.0 0.0 0.0 8.90043 9.8317 -5.04184 -2.00207 0.0772411 0.297525 41.0979 2.19748 -4.95665 0.309577 -0.0 -0.0 -0.0 0.0 -0.0 35.5406 11.125 -6.02743 14.7566 0.881446 2.08316 18.9607 -25.5844 2.74027 12.8017 -0.0 -0.0 0.0 0.0 0.0 
2684.09486958 674.326 -1990.34770432 -26.0489331196 55.8001698402 27.6954203174 8.09717 -0.339279 -2.38436 8.10032 -0.186914 -2.4011 8.10271 -0.0177715 -2.4083 8.09484 -0.397785 -2.3753 -17.9671 -6.53459 3.93754 -18.1915 -14.7016 1.14557 -0.0 0.0 -0.0 12.7751 -22.6551 25.5064 -13.6644 -10.0576 54.5164 2.06408 -45.6316 0.868408 -3.43576 -0.133655 0.418264 -2.13537 -5.79808 -17.1123 -0.0 0.0 -0.0 4.1516 -20.3017 -8.45405 -51.8644 36.364 -51.0256 0.316613 8.91389 -0.0246787 -9.61371 0.436194 -1.14765 0.815746 22.3182 4.09595 0.0 0.0 0.0 7.39544 10.8699 -4.49906 -4.79277 0.167449 0.716273 40.6208 0.526327 -4.92523 5.78515 -0.0 -0.0 -0.0 0.0 -0.0 36.5374 10.5994 -4.73815 9.83115 0.527649 1.41346 25.6685 -20.6767 3.51295 17.4723 -0.0 -0.0 0.0 0.0 0.0 
2688.00603469 674.326 -1996.27405991 -25.6106754492 55.1776664671 27.1635740148 8.09717 -0.339279 -2.38436 8.10032 -0.186914 -2.4011 8.10271 -0.0177715 -2.4083 8.09484 -0.397785 -2.3753 -17.9671 -6.53459 3.93754 -18.1915 -14.7016 1.14557 -0.0 0.0 -0.0 12.7751 -22.6551 25.5064 -13.6644 -10.0576 54.5164 2.06408 -45.6316 0.868408 -3.43576 -0.133655 0.418264 -2.13537 -5.79808 -17.1123 -0.0 0.0 -0.0 4.1516 -20.3017 -8.45405 -51.8644 36.364 -51.0256 0.316613 8.91389 -0.0246787 -9.61371 0.436194 -1.14765 0.815746 22.3182 4.09595 0.0 0.0 0.0 7.39544 10.8699 -4.49906 -4.79277 0.167449 0.716273 40.6208 0.526327 -4.92523 5.78515 -0.0 -0.0 -0.0 0.0 -0.0 36.5374 10.5994 -4.73815 9.83115 0.527649 1.41346 25.6685 -20.6767 3.51295 17.4723 -0.0 -0.0 0.0 0.0 0.0 
2668.10396356 665.674 -2008.1644103 -26.0756759067 56.5510339446 27.1779656383 8.08988 -0.48228 -2.30225 8.09277 -0.334845 -2.32825 8.10127 -0.170522 -2.34601 8.094 -0.538793 -2.28969 -18.3047 -5.54899 4.18332 -18.4686 -12.9222 1.72979 -0.0 0.0 -0.0 12.7254 -23.6267 25.299 -14.3637 -9.92382 55.6296 2.10107 -46.1398 0.894959 1.59259 0.0533845 -0.196395 -2.27508 -7.39673 -18.8306 -0.0 0.0 -0.0 3.14033 -19.9293 -6.9516 -51.1785 35.9679 -51.4072 0.510363 14.1883 -0.0635168 -6.31919 0.265042 -0.762684 2.02141 17.5207 -6.05036 0.0 0.0 0.0 6.16035 10.6296 -4.18398 -6.92389 0.222534 1.03867 40.0651 -2.40825 -4.90355 11.458 -0.0 -0.0 -0.0 0.0 -0.0 37.3293 10.9424 -4.28245 6.92184 0.346257 1.00471 29.9887 -15.1147 3.93476 22.0248 -0.0 -0.0 0.0 0.0 0.0 
2670.72715937 665.674 -2012.07120956 -25.7859559224 56.1544514522 26.8299412266 8.08988 -0.48228 -2.30225 8.09277 -0.334845 -2.32825 8.10127 -0.170522 -2.34601 8.094 -0.538793 -2.28969 -18.3047 -5.54899 4.18332 -18.4686 -12.9222 1.72979 -0.0 0.0 -0.0 12.7254 -23.6267 25.299 -14.3637 -9.92382 55.6296 2.10107 -46.1398 0.894959 1.59259 0.0533845 -0.196395 -2.27508 -7.39673 -18.8306 -0.0 0.0 -0.0 3.14033 -19.9293 -6.9516 -51.1785 35.9679 -51.4072 0.510363 14.1883 -0.0635168 -6.31919 0.265042 -0.762684 2.02141 17.5207 -6.05036 0.0 0.0 0.0 6.16035 10.6296 -4.18398 -6.92389 0.222534 1.03867 40.0651 -2.40825 -4.90355 11.458 -0.0 -0.0 -0.0 0.0 -0.0 37.3293 10.9424 -4.28245 6.92184 0.346257 1.00471 29.9887 -15.1147 3.93476 22.0248 -0.0 -0.0 0.0 0.0 0.0 
